#N canvas 0 23 1920 999 12;
#X obj 40 350 outlet;
#X obj 30 40 inlet;
#X obj 160 40 inlet;
#X obj 290 40 inlet;
#X obj 60 189 f;
#X obj 280 159 f;
#X obj 60 250 expr $f1 + $f2 - (2 * $f1 * $f2);
#X obj 280 189 t b f;
#X floatatom 60 219 5 0 0 0 - - -, f 5;
#X floatatom 280 219 5 0 0 0 - - -, f 5;
#X floatatom 810 230 5 0 0 0 - - -, f 5;
#X obj 810 170 t b f;
#X obj 810 260 change;
#X floatatom 810 290 5 0 0 0 - - -, f 5;
#X obj 810 200 !=;
#X obj 40 310 f;
#X obj 30 100 t b b b;
#X connect 1 0 16 0;
#X connect 2 0 4 1;
#X connect 3 0 5 1;
#X connect 4 0 8 0;
#X connect 5 0 7 0;
#X connect 6 0 15 1;
#X connect 7 0 6 0;
#X connect 7 1 9 0;
#X connect 8 0 6 0;
#X connect 9 0 6 1;
#X connect 10 0 12 0;
#X connect 11 0 14 0;
#X connect 11 1 14 1;
#X connect 12 0 13 0;
#X connect 14 0 10 0;
#X connect 15 0 0 0;
#X connect 16 0 15 0;
#X connect 16 1 4 0;
#X connect 16 2 5 0;
